<svg xmlns="http://www.w3.org/2000/svg" width="165" height="181" fill="none" viewBox="0 0 165 181">
  <path fill="#0D216D" fill-opacity=".51" d="M1.398 3.123c.773 0 1.399-.699 1.399-1.561C2.797.699 2.17 0 1.398 0S0 .7 0 1.562c0 .862.626 1.561 1.398 1.561Zm.001 12.711a1.209 1.209 0 0 1-.719-.252 1.433 1.433 0 0 1-.473-.655 1.611 1.611 0 0 1-.068-.838 1.51 1.51 0 0 1 .36-.74c.182-.201.413-.338.665-.393.252-.054.513-.025.75.086.237.11.439.296.581.535a1.6 1.6 0 0 1 .118 1.364 1.472 1.472 0 0 1-.285.473 1.299 1.299 0 0 1-.427.314c-.16.072-.33.108-.502.106Zm-.001 12.711c-.24 0-.476-.08-.676-.23a1.33 1.33 0 0 1-.448-.609 1.506 1.506 0 0 1-.069-.785c.047-.263.163-.505.333-.695.17-.19.387-.32.623-.372a1.1 1.1 0 0 1 .703.077c.222.103.412.277.546.5.134.224.205.486.205.755 0 .36-.128.706-.356.96a1.156 1.156 0 0 1-.86.399Zm.001 12.695a1.04 1.04 0 0 1-.622-.21 1.23 1.23 0 0 1-.412-.56 1.385 1.385 0 0 1-.063-.723 1.3 1.3 0 0 1 .306-.64c.156-.174.356-.293.573-.341a1.01 1.01 0 0 1 .646.07c.205.095.38.256.502.461.123.205.189.447.189.694 0 .331-.118.65-.328.883a1.06 1.06 0 0 1-.791.366Zm0 12.712a.96.96 0 0 1-.576-.196 1.138 1.138 0 0 1-.381-.521 1.282 1.282 0 0 1-.057-.67c.041-.225.141-.43.287-.591.146-.161.332-.27.534-.313a.936.936 0 0 1 .599.072c.189.09.35.24.461.433.112.192.17.417.168.646 0 .15-.027.3-.08.44a1.137 1.137 0 0 1-.224.371 1.01 1.01 0 0 1-.336.247.928.928 0 0 1-.395.082Zm0 12.71a.869.869 0 0 1-.52-.176 1.03 1.03 0 0 1-.346-.47 1.16 1.16 0 0 1-.053-.604 1.09 1.09 0 0 1 .256-.536.911.911 0 0 1 .48-.286c.182-.04.37-.02.541.06a.956.956 0 0 1 .42.385c.104.172.159.374.159.581 0 .278-.099.544-.275.74a.89.89 0 0 1-.662.306Zm0 12.696a.797.797 0 0 1-.594-.274.995.995 0 0 1-.245-.663c0-.248.088-.487.245-.662a.797.797 0 0 1 .594-.275.8.8 0 0 1 .593.275.995.995 0 0 1 .246.662.995.995 0 0 1-.246.663.797.797 0 0 1-.593.274Zm0 12.726a.7.7 0 0 1-.42-.142.83.83 0 0 1-.278-.378.935.935 0 0 1-.043-.487.878.878 0 0 1 .207-.432.735.735 0 0 1 .386-.23.683.683 0 0 1 .437.047.78.78 0 0 1 .339.31.915.915 0 0 1 .127.47.9.9 0 0 1-.221.596.718.718 0 0 1-.534.246Zm-.001 12.68a.606.606 0 0 1-.366-.125.722.722 0 0 1-.242-.332.813.813 0 0 1-.035-.426.76.76 0 0 1 .184-.375.633.633 0 0 1 .34-.197.591.591 0 0 1 .38.048.68.68 0 0 1 .293.277.8.8 0 0 1-.094.921.624.624 0 0 1-.46.209Zm.002 12.712a.532.532 0 0 1-.396-.183.663.663 0 0 1-.164-.442c0-.166.059-.324.164-.442a.53.53 0 0 1 .395-.182c.149 0 .29.065.396.182a.665.665 0 0 1 .164.442.663.663 0 0 1-.164.442.532.532 0 0 1-.396.183Zm-.002 12.711a.444.444 0 0 1-.264-.09.52.52 0 0 1-.175-.238.59.59 0 0 1-.027-.307.552.552 0 0 1 .13-.272.46.46 0 0 1 .244-.145.427.427 0 0 1 .274.03c.087.04.161.108.214.196a.575.575 0 0 1-.06.67.45.45 0 0 1-.336.156Zm0 12.695a.346.346 0 0 1-.21-.071.413.413 0 0 1-.139-.189.469.469 0 0 1-.021-.244.44.44 0 0 1 .103-.215c.053-.059.12-.1.193-.116a.342.342 0 0 1 .219.024.392.392 0 0 1 .169.155.46.46 0 0 1-.047.533.358.358 0 0 1-.267.123Zm0 12.712a.262.262 0 0 1-.156-.053.306.306 0 0 1-.103-.14.348.348 0 0 1-.015-.181.33.33 0 0 1 .076-.16.275.275 0 0 1 .143-.085.25.25 0 0 1 .162.018.281.281 0 0 1 .125.115.334.334 0 0 1 .048.173.33.33 0 0 1-.082.221.265.265 0 0 1-.198.092Zm.001 12.695a.17.17 0 0 1-.129-.06.214.214 0 0 1-.053-.143c0-.054.019-.106.053-.144a.174.174 0 0 1 .129-.06c.048 0 .094.022.128.06s.053.09.053.144a.214.214 0 0 1-.053.143.17.17 0 0 1-.128.06Zm.001 12.71a.097.097 0 0 1-.061-.037.117.117 0 0 1-.024-.072c0-.025.01-.049.025-.066a.078.078 0 0 1 .06-.027.09.09 0 0 1 .064.026.11.11 0 0 1 .033.067c0 .029-.01.056-.028.077a.095.095 0 0 1-.07.032ZM11.523 3.123c.773 0 1.399-.699 1.399-1.561C12.922.699 12.296 0 11.523 0c-.772 0-1.398.7-1.398 1.562 0 .862.626 1.561 1.398 1.561Zm.001 12.711a1.209 1.209 0 0 1-.719-.252 1.433 1.433 0 0 1-.473-.655 1.613 1.613 0 0 1-.068-.838 1.51 1.51 0 0 1 .36-.74c.182-.201.413-.338.665-.393.252-.054.513-.025.75.086.236.11.439.296.581.535a1.599 1.599 0 0 1 .118 1.364 1.47 1.47 0 0 1-.285.473 1.298 1.298 0 0 1-.427.314c-.16.072-.33.108-.502.106Zm-.001 12.711c-.24 0-.476-.08-.676-.23a1.33 1.33 0 0 1-.448-.609 1.508 1.508 0 0 1-.069-.785c.047-.263.163-.505.333-.695.17-.19.387-.32.623-.372a1.1 1.1 0 0 1 .703.077c.222.103.412.277.546.5.133.224.205.486.205.755.002.18-.028.357-.089.523-.06.165-.15.316-.263.442a1.201 1.201 0 0 1-.397.295 1.094 1.094 0 0 1-.468.099Zm.001 12.695c.618 0 1.119-.56 1.119-1.25 0-.689-.501-1.248-1.119-1.248s-1.119.559-1.119 1.249c0 .69.501 1.25 1.119 1.25Zm-.001 12.712a.96.96 0 0 1-.576-.196 1.138 1.138 0 0 1-.381-.521 1.281 1.281 0 0 1-.057-.67c.041-.225.141-.43.287-.591a1.01 1.01 0 0 1 .534-.313.936.936 0 0 1 .599.072c.189.09.35.24.461.433.112.192.17.417.168.646 0 .15-.027.3-.08.44a1.137 1.137 0 0 1-.224.371 1.02 1.02 0 0 1-.336.247.928.928 0 0 1-.395.082Zm.001 12.71a.89.89 0 0 1-.663-.306 1.111 1.111 0 0 1-.274-.74c0-.277.099-.543.274-.74a.89.89 0 0 1 .663-.306.89.89 0 0 1 .662.306c.176.197.275.463.275.74 0 .278-.099.544-.275.74a.89.89 0 0 1-.662.306Zm-.001 12.696c.463 0 .839-.42.839-.937 0-.517-.376-.937-.84-.937-.463 0-.838.42-.838.937 0 .518.375.937.839.937Zm.001 12.726a.7.7 0 0 1-.42-.142.83.83 0 0 1-.278-.378.935.935 0 0 1-.043-.487.877.877 0 0 1 .207-.432.735.735 0 0 1 .386-.23.683.683 0 0 1 .437.047.78.78 0 0 1 .339.31.916.916 0 0 1 .127.47.9.9 0 0 1-.221.596.717.717 0 0 1-.534.246Zm0 12.681a.64.64 0 0 1-.402-.246.787.787 0 0 1-.16-.48.79.79 0 0 1 .16-.48.644.644 0 0 1 .402-.246.601.601 0 0 1 .525.171.733.733 0 0 1 .168.25.806.806 0 0 1 0 .611.743.743 0 0 1-.168.25.657.657 0 0 1-.246.149.588.588 0 0 1-.28.021Zm-.002 12.711a.517.517 0 0 1-.31-.106.611.611 0 0 1-.207-.28.693.693 0 0 1-.031-.361.655.655 0 0 1 .153-.32.544.544 0 0 1 .286-.17.501.501 0 0 1 .323.035c.102.047.19.127.251.23a.68.68 0 0 1-.07.789.532.532 0 0 1-.395.183Zm.001 12.711a.444.444 0 0 1-.264-.09.52.52 0 0 1-.175-.238.59.59 0 0 1-.027-.307.552.552 0 0 1 .13-.272.46.46 0 0 1 .244-.145.427.427 0 0 1 .274.03c.087.04.161.108.214.196a.576.576 0 0 1-.06.67.45.45 0 0 1-.336.156Zm.001 12.695a.376.376 0 0 1-.22-.146.45.45 0 0 1-.085-.268c0-.098.03-.192.086-.268a.376.376 0 0 1 .219-.146.356.356 0 0 1 .312.089.414.414 0 0 1 .102.145.465.465 0 0 1 0 .36.414.414 0 0 1-.102.145.341.341 0 0 1-.312.089Zm-.001 12.696c.154 0 .28-.14.28-.313 0-.172-.126-.312-.28-.312-.155 0-.28.14-.28.312 0 .173.125.313.28.313Zm.001 12.711a.172.172 0 0 1-.129-.059.216.216 0 0 1-.053-.144c0-.054.019-.105.053-.143a.17.17 0 0 1 .129-.06.17.17 0 0 1 .128.06.214.214 0 0 1 .053.143.217.217 0 0 1-.053.144.172.172 0 0 1-.128.059Zm0 12.71s-.084 0-.084-.109c0-.025.01-.049.025-.066a.078.078 0 0 1 .06-.027.09.09 0 0 1 .064.026.11.11 0 0 1 .033.067c0 .029-.01.056-.028.077a.095.095 0 0 1-.07.032ZM21.646 3.123c.773 0 1.399-.699 1.399-1.561C23.045.699 22.419 0 21.646 0c-.772 0-1.398.7-1.398 1.562 0 .862.626 1.561 1.398 1.561Zm.029 12.711c-.257 0-.508-.085-.722-.245a1.43 1.43 0 0 1-.479-.651 1.61 1.61 0 0 1-.074-.84c.05-.281.174-.54.356-.743.182-.203.414-.341.666-.397.252-.056.514-.028.751.082.238.11.441.296.584.535a1.621 1.621 0 0 1 .124 1.365c-.065.177-.16.338-.282.473a1.286 1.286 0 0 1-.424.315 1.17 1.17 0 0 1-.5.106Zm.001 12.711c-.241 0-.476-.08-.676-.23a1.33 1.33 0 0 1-.448-.609 1.506 1.506 0 0 1-.07-.785c.047-.263.163-.505.333-.695.17-.19.387-.32.623-.372a1.1 1.1 0 0 1 .703.077c.223.103.413.277.546.5.134.224.205.486.205.755 0 .36-.128.706-.356.96a1.156 1.156 0 0 1-.86.399Zm-.028 12.695c.618 0 1.119-.56 1.119-1.25 0-.689-.501-1.248-1.119-1.248s-1.119.559-1.119 1.249c0 .69.501 1.25 1.119 1.25Zm.027 12.712a1.005 1.005 0 0 1-.652-.38 1.236 1.236 0 0 1-.262-.768c0-.283.093-.557.262-.768a1 1 0 0 1 .652-.38c.252.033.485.168.653.38.169.211.262.485.262.768 0 .283-.093.557-.262.768a1.005 1.005 0 0 1-.652.38Zm0 12.71a.869.869 0 0 1-.52-.176 1.03 1.03 0 0 1-.345-.47 1.16 1.16 0 0 1-.054-.604 1.09 1.09 0 0 1 .257-.536.912.912 0 0 1 .48-.286.84.84 0 0 1 .54.06.963.963 0 0 1 .421.385c.103.172.158.374.158.581 0 .278-.099.544-.274.74a.89.89 0 0 1-.663.306Zm-.027 12.696c.463 0 .839-.42.839-.937 0-.517-.376-.937-.84-.937-.463 0-.838.42-.838.937 0 .518.375.937.839.937Zm.027 12.726a.698.698 0 0 1-.423-.134.826.826 0 0 1-.284-.375.935.935 0 0 1-.049-.489.879.879 0 0 1 .203-.435.737.737 0 0 1 .387-.236.682.682 0 0 1 .438.046.779.779 0 0 1 .341.31.914.914 0 0 1 .128.47.896.896 0 0 1-.216.59.72.72 0 0 1-.525.253Zm.001 12.681a.606.606 0 0 1-.367-.125.722.722 0 0 1-.242-.332.813.813 0 0 1-.035-.426.76.76 0 0 1 .184-.375.633.633 0 0 1 .34-.197.59.59 0 0 1 .381.048c.12.058.221.154.292.277a.799.799 0 0 1-.093.921.624.624 0 0 1-.46.209Zm.001 12.711a.517.517 0 0 1-.311-.106.611.611 0 0 1-.206-.28.693.693 0 0 1-.032-.361.655.655 0 0 1 .153-.32.544.544 0 0 1 .286-.17.501.501 0 0 1 .324.035c.102.047.19.127.25.23a.68.68 0 0 1-.069.789.532.532 0 0 1-.395.183Zm-.001 12.71a.442.442 0 0 1-.268-.081.526.526 0 0 1-.181-.235.59.59 0 0 1-.033-.308.55.55 0 0 1 .127-.276.465.465 0 0 1 .243-.15.426.426 0 0 1 .277.028.483.483 0 0 1 .215.195.577.577 0 0 1-.053.666.45.45 0 0 1-.327.161Zm-.002 12.696a.346.346 0 0 1-.21-.071.413.413 0 0 1-.138-.189.47.47 0 0 1-.022-.244.44.44 0 0 1 .104-.215c.052-.059.12-.1.193-.116a.342.342 0 0 1 .218.024.392.392 0 0 1 .17.155.46.46 0 0 1-.048.533.358.358 0 0 1-.267.123Zm-.026 12.696c.154 0 .28-.14.28-.313 0-.172-.126-.312-.28-.312-.155 0-.28.14-.28.312 0 .173.125.313.28.313Zm.028 12.711a.17.17 0 0 1-.101-.034.198.198 0 0 1-.067-.091.224.224 0 0 1 .04-.221.175.175 0 0 1 .093-.056.165.165 0 0 1 .105.011.195.195 0 0 1 .081.075.223.223 0 0 1-.023.257.172.172 0 0 1-.128.059Zm0 12.711a.091.091 0 0 1-.07-.032.114.114 0 0 1-.028-.077c0-.029.01-.057.029-.077a.092.092 0 0 1 .069-.033c.026 0 .05.012.07.033.018.02.028.048.028.077 0 .029-.01.057-.029.077a.091.091 0 0 1-.069.032ZM31.758 3.123c.772 0 1.398-.699 1.398-1.561C33.156.699 32.53 0 31.758 0c-.773 0-1.399.7-1.399 1.562 0 .862.626 1.561 1.399 1.561Zm.014 12.711c-.257 0-.508-.085-.722-.245a1.43 1.43 0 0 1-.48-.651 1.61 1.61 0 0 1-.073-.84c.05-.281.174-.54.356-.743a1.26 1.26 0 0 1 .665-.397c.253-.056.514-.028.752.082s.44.296.584.535c.142.239.219.52.219.807 0 .385-.137.754-.381 1.027a1.236 1.236 0 0 1-.92.425Zm0 12.711c-.17.02-.342 0-.504-.058a1.192 1.192 0 0 1-.44-.282 1.362 1.362 0 0 1-.298-.457 1.494 1.494 0 0 1 0-1.107c.07-.174.171-.33.298-.457.128-.128.277-.224.44-.282.162-.059.334-.079.504-.058.298.036.574.193.775.443.2.25.311.572.311.908 0 .335-.11.658-.311.907-.2.25-.477.407-.775.443Zm-.014 12.695c.618 0 1.12-.56 1.12-1.25 0-.689-.502-1.248-1.12-1.248-.617 0-1.118.559-1.118 1.249 0 .69.5 1.25 1.118 1.25Zm.013 12.712a.958.958 0 0 1-.58-.189 1.136 1.136 0 0 1-.387-.517 1.281 1.281 0 0 1-.062-.672c.04-.225.138-.432.284-.595a1 1 0 0 1 .533-.317.935.935 0 0 1 .6.07c.19.089.352.24.465.432.112.192.171.418.168.648a1.226 1.226 0 0 1-.303.801.984.984 0 0 1-.718.339Zm.001 12.71a.89.89 0 0 1-.663-.306 1.111 1.111 0 0 1-.274-.74c0-.277.099-.543.274-.74a.89.89 0 0 1 .663-.306.89.89 0 0 1 .662.306c.176.197.275.463.275.74 0 .278-.099.544-.275.74a.89.89 0 0 1-.662.306Zm-.013 12.696c.463 0 .839-.42.839-.937 0-.517-.376-.937-.84-.937-.462 0-.838.42-.838.937 0 .518.375.937.839.937Zm.013 12.726a.698.698 0 0 1-.423-.134.826.826 0 0 1-.285-.375.934.934 0 0 1-.048-.489.88.88 0 0 1 .203-.435.737.737 0 0 1 .386-.236.682.682 0 0 1 .439.046.779.779 0 0 1 .34.31.915.915 0 0 1 .13.47.897.897 0 0 1-.217.59.72.72 0 0 1-.525.253Zm.001 12.68a.61.61 0 0 1-.37-.117.717.717 0 0 1-.249-.329.81.81 0 0 1-.04-.427.766.766 0 0 1 .18-.38.642.642 0 0 1 .34-.201.596.596 0 0 1 .383.045c.12.058.223.154.294.277a.798.798 0 0 1-.087.917.626.626 0 0 1-.451.215Zm-.001 12.712a.517.517 0 0 1-.31-.106.612.612 0 0 1-.207-.28.694.694 0 0 1-.031-.361.655.655 0 0 1 .153-.32.544.544 0 0 1 .286-.17.501.501 0 0 1 .323.035c.103.047.19.127.251.23a.68.68 0 0 1-.07.789.532.532 0 0 1-.395.183Zm.001 12.711a.432.432 0 0 1-.206-.011.455.455 0 0 1-.182-.106.53.53 0 0 1-.125-.182.589.589 0 0 1 0-.449.53.53 0 0 1 .125-.182.455.455 0 0 1 .182-.106.432.432 0 0 1 .206-.011.47.47 0 0 1 .282.182.566.566 0 0 1 .112.342c0 .125-.04.246-.112.341a.47.47 0 0 1-.282.182Zm-.015 12.695c.209 0 .378-.188.378-.421 0-.233-.17-.422-.378-.422s-.377.189-.377.422c0 .233.169.421.377.421Zm0 12.696c.155 0 .28-.14.28-.313 0-.172-.125-.312-.28-.312-.154 0-.28.14-.28.312 0 .173.126.313.28.313Zm.014 12.711a.172.172 0 0 1-.129-.059.216.216 0 0 1-.053-.144c0-.054.019-.105.053-.143a.17.17 0 0 1 .129-.06.17.17 0 0 1 .128.06.214.214 0 0 1 .053.143.217.217 0 0 1-.053.144.172.172 0 0 1-.128.059Zm.001 12.71a.095.095 0 0 1-.07-.032.116.116 0 0 1-.028-.077.112.112 0 0 1 .033-.067.09.09 0 0 1 .065-.026c.022 0 .043.009.059.027a.097.097 0 0 1 .025.066.117.117 0 0 1-.024.072.097.097 0 0 1-.06.037ZM41.883 3.123c.772 0 1.398-.699 1.398-1.561C43.281.699 42.655 0 41.883 0c-.773 0-1.399.7-1.399 1.562 0 .862.627 1.561 1.399 1.561Zm0 12.711a1.21 1.21 0 0 1-.719-.252 1.434 1.434 0 0 1-.472-.655 1.61 1.61 0 0 1-.069-.838 1.51 1.51 0 0 1 .36-.74c.182-.201.414-.338.666-.393.252-.054.512-.025.75.086.236.11.438.296.58.535a1.599 1.599 0 0 1 .118 1.364 1.472 1.472 0 0 1-.285.473 1.3 1.3 0 0 1-.427.314c-.16.072-.33.108-.502.106Zm0 12.711c-.241 0-.476-.08-.676-.23a1.33 1.33 0 0 1-.448-.609 1.507 1.507 0 0 1-.07-.785c.047-.263.163-.505.333-.695.17-.19.387-.32.623-.372a1.1 1.1 0 0 1 .703.077c.223.103.413.277.546.5.134.224.205.486.205.755 0 .36-.128.706-.356.96a1.156 1.156 0 0 1-.86.399Zm0 12.695a1.04 1.04 0 0 1-.621-.21 1.23 1.23 0 0 1-.412-.56 1.386 1.386 0 0 1-.064-.723 1.3 1.3 0 0 1 .306-.64c.157-.174.356-.293.573-.341a1.01 1.01 0 0 1 .647.07c.204.095.379.256.502.461.123.205.188.447.188.694 0 .331-.118.65-.328.883a1.06 1.06 0 0 1-.79.366Zm-.001 12.712a.96.96 0 0 1-.576-.196 1.138 1.138 0 0 1-.38-.521 1.281 1.281 0 0 1-.057-.67 1.2 1.2 0 0 1 .287-.591c.146-.161.332-.27.533-.313a.936.936 0 0 1 .6.072c.188.09.349.24.46.433.113.192.171.417.168.646 0 .15-.027.3-.079.44a1.14 1.14 0 0 1-.225.371 1.01 1.01 0 0 1-.336.247.928.928 0 0 1-.395.082Zm.001 12.71a.869.869 0 0 1-.52-.176 1.03 1.03 0 0 1-.345-.47 1.16 1.16 0 0 1-.054-.604 1.09 1.09 0 0 1 .257-.536.911.911 0 0 1 .48-.286.84.84 0 0 1 .54.06.963.963 0 0 1 .421.385c.103.172.158.374.158.581 0 .278-.099.544-.274.74a.89.89 0 0 1-.663.306Zm0 12.696c.463 0 .84-.42.84-.937 0-.517-.377-.937-.84-.937-.463 0-.84.42-.84.937 0 .518.377.937.84.937Zm0 12.726a.7.7 0 0 1-.42-.142.831.831 0 0 1-.278-.378.936.936 0 0 1-.043-.487.878.878 0 0 1 .207-.432.735.735 0 0 1 .387-.23.682.682 0 0 1 .436.047.779.779 0 0 1 .339.31.915.915 0 0 1 .127.47c0 .223-.08.437-.22.596a.718.718 0 0 1-.535.246Zm0 12.68a.606.606 0 0 1-.367-.125.722.722 0 0 1-.242-.332.813.813 0 0 1-.035-.426.76.76 0 0 1 .184-.375.634.634 0 0 1 .34-.197.591.591 0 0 1 .381.048c.12.058.221.154.292.277a.8.8 0 0 1-.093.921.624.624 0 0 1-.46.209Zm0 12.712a.532.532 0 0 1-.396-.183.663.663 0 0 1-.164-.442.67.67 0 0 1 .164-.442.531.531 0 0 1 .396-.182.53.53 0 0 1 .395.182.665.665 0 0 1 .164.442.663.663 0 0 1-.164.442.532.532 0 0 1-.395.183Zm0 12.711a.444.444 0 0 1-.265-.09.52.52 0 0 1-.175-.238.589.589 0 0 1-.027-.307.552.552 0 0 1 .13-.272.46.46 0 0 1 .244-.145.427.427 0 0 1 .275.03.49.49 0 0 1 .213.196.576.576 0 0 1-.06.67.45.45 0 0 1-.335.156Zm0 12.695a.346.346 0 0 1-.21-.071.413.413 0 0 1-.138-.189.468.468 0 0 1-.022-.244.44.44 0 0 1 .104-.215c.052-.059.12-.1.193-.116a.342.342 0 0 1 .218.024.392.392 0 0 1 .17.155.46.46 0 0 1-.048.533.358.358 0 0 1-.267.123Zm-.001 12.712a.261.261 0 0 1-.155-.053.306.306 0 0 1-.103-.14.349.349 0 0 1-.016-.181.33.33 0 0 1 .077-.16.275.275 0 0 1 .143-.085.25.25 0 0 1 .161.018.282.282 0 0 1 .126.115.342.342 0 0 1-.035.394.265.265 0 0 1-.198.092Zm.001 12.695a.17.17 0 0 1-.129-.06.214.214 0 0 1-.053-.143c0-.054.02-.106.053-.144a.174.174 0 0 1 .129-.06c.048 0 .094.022.128.06a.22.22 0 0 1 .001.287.17.17 0 0 1-.129.06Zm-.001 12.71a.097.097 0 0 1-.06-.037.117.117 0 0 1-.024-.072.1.1 0 0 1 .024-.066.078.078 0 0 1 .06-.027.09.09 0 0 1 .065.026c.017.017.03.041.033.067 0 .029-.01.056-.029.077a.095.095 0 0 1-.07.032ZM52.008 3.123c.772 0 1.398-.699 1.398-1.561C53.406.699 52.78 0 52.008 0c-.773 0-1.399.7-1.399 1.562 0 .862.627 1.561 1.399 1.561Zm0 12.711a1.209 1.209 0 0 1-.718-.252 1.433 1.433 0 0 1-.473-.655 1.61 1.61 0 0 1-.069-.838c.052-.28.177-.538.36-.74.182-.201.414-.338.666-.393.252-.054.512-.025.75.086.236.11.438.296.58.535a1.599 1.599 0 0 1 .118 1.364 1.47 1.47 0 0 1-.285.473 1.298 1.298 0 0 1-.427.314c-.16.072-.33.108-.502.106Zm0 12.711c-.241 0-.476-.08-.676-.23a1.33 1.33 0 0 1-.448-.609 1.507 1.507 0 0 1-.07-.785c.047-.263.163-.505.333-.695.17-.19.387-.32.623-.372a1.1 1.1 0 0 1 .703.077c.223.103.413.277.546.5.134.224.205.486.205.755a1.48 1.48 0 0 1-.088.523c-.061.165-.15.316-.264.442a1.201 1.201 0 0 1-.397.295 1.094 1.094 0 0 1-.467.099Zm-.002 12.695a1.04 1.04 0 0 1-.621-.21 1.229 1.229 0 0 1-.412-.56 1.385 1.385 0 0 1-.064-.723 1.3 1.3 0 0 1 .306-.64c.157-.174.356-.293.573-.341a1.01 1.01 0 0 1 .647.07c.204.095.379.256.502.461.123.205.188.447.188.694 0 .331-.118.65-.328.883a1.06 1.06 0 0 1-.79.366Zm.001 12.712a.96.96 0 0 1-.576-.196 1.138 1.138 0 0 1-.38-.521 1.281 1.281 0 0 1-.057-.67 1.2 1.2 0 0 1 .287-.591c.146-.161.332-.27.533-.313a.936.936 0 0 1 .6.072c.188.09.349.24.46.433.113.192.171.417.168.646 0 .15-.027.3-.079.44a1.14 1.14 0 0 1-.225.371 1.02 1.02 0 0 1-.336.247.928.928 0 0 1-.395.082Zm.001 12.71a.89.89 0 0 1-.662-.306 1.111 1.111 0 0 1-.275-.74c0-.277.099-.543.275-.74a.89.89 0 0 1 .662-.306.89.89 0 0 1 .663.306c.175.197.274.463.274.74 0 .278-.099.544-.274.74a.89.89 0 0 1-.663.306Zm-.001 12.696a.778.778 0 0 1-.466-.158.922.922 0 0 1-.31-.42 1.039 1.039 0 0 1-.047-.541.976.976 0 0 1 .23-.48.816.816 0 0 1 .43-.257.758.758 0 0 1 .484.054.867.867 0 0 1 .377.345c.092.154.141.335.141.52a.995.995 0 0 1-.246.663.797.797 0 0 1-.593.274Zm.001 12.726a.7.7 0 0 1-.42-.142.831.831 0 0 1-.278-.378.936.936 0 0 1-.043-.487.878.878 0 0 1 .207-.432.735.735 0 0 1 .387-.23.682.682 0 0 1 .436.047.78.78 0 0 1 .339.31.915.915 0 0 1 .127.47c0 .223-.08.437-.22.596a.718.718 0 0 1-.535.246Zm-.001 12.68a.64.64 0 0 1-.402-.246.787.787 0 0 1-.16-.48.79.79 0 0 1 .16-.48.644.644 0 0 1 .402-.246.601.601 0 0 1 .525.171.733.733 0 0 1 .168.25.806.806 0 0 1 0 .611.743.743 0 0 1-.168.25.657.657 0 0 1-.246.149.588.588 0 0 1-.279.021Zm.001 12.712a.517.517 0 0 1-.311-.106.611.611 0 0 1-.206-.28.693.693 0 0 1-.032-.361.655.655 0 0 1 .153-.32.544.544 0 0 1 .286-.17.501.501 0 0 1 .324.035c.102.047.19.127.25.23a.68.68 0 0 1-.069.789.532.532 0 0 1-.395.183Zm0 12.711a.444.444 0 0 1-.265-.09.52.52 0 0 1-.175-.238.589.589 0 0 1-.027-.307.552.552 0 0 1 .13-.272.46.46 0 0 1 .244-.145.427.427 0 0 1 .275.03.49.49 0 0 1 .213.196.576.576 0 0 1-.06.67.45.45 0 0 1-.335.156Zm-.001 12.696a.376.376 0 0 1-.219-.146.453.453 0 0 1-.086-.268c0-.098.03-.193.086-.268a.372.372 0 0 1 .22-.146.342.342 0 0 1 .164.005.367.367 0 0 1 .148.083.43.43 0 0 1 .101.146.463.463 0 0 1 0 .36.414.414 0 0 1-.101.145.356.356 0 0 1-.313.089Zm0 12.711a.261.261 0 0 1-.155-.053.306.306 0 0 1-.103-.14.349.349 0 0 1-.016-.181.33.33 0 0 1 .077-.16.275.275 0 0 1 .143-.085.25.25 0 0 1 .161.018.282.282 0 0 1 .126.115.342.342 0 0 1-.035.394.265.265 0 0 1-.198.092Zm0 12.695a.172.172 0 0 1-.128-.059.216.216 0 0 1-.054-.144.22.22 0 0 1 .053-.143.17.17 0 0 1 .129-.06.17.17 0 0 1 .129.06.214.214 0 0 1 .053.143c0 .054-.02.106-.053.144a.172.172 0 0 1-.129.059Zm0 12.71s-.084 0-.084-.109a.1.1 0 0 1 .024-.066.078.078 0 0 1 .06-.027.09.09 0 0 1 .065.026c.017.017.03.041.033.067 0 .029-.01.056-.029.077a.095.095 0 0 1-.07.032ZM62.133 3.123c.772 0 1.398-.699 1.398-1.561C63.531.699 62.905 0 62.133 0c-.773 0-1.399.7-1.399 1.562 0 .862.627 1.561 1.399 1.561Zm-.001 12.711c-.258 0-.51-.085-.723-.245a1.431 1.431 0 0 1-.479-.651 1.611 1.611 0 0 1-.074-.84c.05-.281.174-.54.356-.743.182-.203.414-.341.666-.397.252-.056.514-.028.751.082.238.11.441.296.584.535a1.621 1.621 0 0 1 .124 1.365c-.065.177-.16.338-.282.473a1.288 1.288 0 0 1-.423.315 1.17 1.17 0 0 1-.5.106Zm-.002 12.711c-.24 0-.475-.08-.675-.23a1.33 1.33 0 0 1-.448-.609 1.507 1.507 0 0 1-.07-.785c.047-.263.163-.505.333-.695.17-.19.387-.32.623-.372a1.1 1.1 0 0 1 .703.077c.223.103.413.277.546.5.134.224.205.486.205.755 0 .36-.128.706-.356.96a1.156 1.156 0 0 1-.86.399Zm.001 12.695a1.04 1.04 0 0 1-.621-.21 1.23 1.23 0 0 1-.412-.56 1.386 1.386 0 0 1-.064-.723 1.3 1.3 0 0 1 .306-.64c.157-.174.356-.293.573-.341a1.01 1.01 0 0 1 .647.07c.204.095.379.256.502.461.123.205.188.447.188.694 0 .331-.118.65-.328.883a1.06 1.06 0 0 1-.79.366Zm.002 12.712a1.005 1.005 0 0 1-.653-.38 1.236 1.236 0 0 1-.262-.768c0-.283.093-.557.262-.768a1 1 0 0 1 .653-.38c.251.033.484.168.652.38.17.211.262.485.262.768 0 .283-.093.557-.262.768a1.005 1.005 0 0 1-.652.38Zm-.001 12.71a.869.869 0 0 1-.52-.176 1.03 1.03 0 0 1-.345-.47 1.16 1.16 0 0 1-.054-.604 1.09 1.09 0 0 1 .257-.536.912.912 0 0 1 .48-.286.84.84 0 0 1 .54.06.963.963 0 0 1 .421.385c.103.172.158.374.158.581 0 .278-.099.544-.274.74a.89.89 0 0 1-.663.306Zm0 12.696c.464 0 .84-.42.84-.937 0-.517-.377-.937-.84-.937-.463 0-.839.42-.839.937 0 .518.376.937.84.937Zm-.001 12.726a.698.698 0 0 1-.423-.134.825.825 0 0 1-.284-.375.935.935 0 0 1-.049-.489.88.88 0 0 1 .203-.435.737.737 0 0 1 .387-.236.682.682 0 0 1 .438.046.779.779 0 0 1 .341.31.916.916 0 0 1 .129.47.897.897 0 0 1-.217.59.72.72 0 0 1-.525.253Zm.001 12.68a.606.606 0 0 1-.367-.125.722.722 0 0 1-.242-.332.812.812 0 0 1-.035-.426.76.76 0 0 1 .184-.375.633.633 0 0 1 .34-.197.59.59 0 0 1 .381.048.68.68 0 0 1 .292.277.8.8 0 0 1-.093.921.624.624 0 0 1-.46.209Zm0 12.712a.517.517 0 0 1-.311-.106.612.612 0 0 1-.206-.28.693.693 0 0 1-.032-.361.655.655 0 0 1 .153-.32.544.544 0 0 1 .287-.17.501.501 0 0 1 .323.035c.102.047.19.127.25.23a.68.68 0 0 1-.069.789.532.532 0 0 1-.395.183Zm0 12.71a.441.441 0 0 1-.268-.081.526.526 0 0 1-.181-.235.588.588 0 0 1-.033-.308.558.558 0 0 1 .127-.276.465.465 0 0 1 .243-.15.426.426 0 0 1 .277.028.483.483 0 0 1 .215.195.576.576 0 0 1-.053.666.45.45 0 0 1-.327.161Zm0 12.696c.208 0 .377-.188.377-.421 0-.233-.169-.422-.377-.422-.209 0-.378.189-.378.422 0 .233.169.421.378.421Zm-.001 12.712a.262.262 0 0 1-.155-.053.305.305 0 0 1-.103-.14.348.348 0 0 1-.016-.181.329.329 0 0 1 .077-.16.275.275 0 0 1 .143-.085.25.25 0 0 1 .161.018.281.281 0 0 1 .126.115.342.342 0 0 1-.035.394.265.265 0 0 1-.198.092Zm0 12.695a.17.17 0 0 1-.101-.034.198.198 0 0 1-.067-.091.224.224 0 0 1 .04-.221.175.175 0 0 1 .093-.056.166.166 0 0 1 .105.011.195.195 0 0 1 .081.075.224.224 0 0 1-.022.257.172.172 0 0 1-.129.059ZM62.132 181a.091.091 0 0 1-.07-.032.114.114 0 0 1-.028-.077c0-.029.01-.057.029-.077a.092.092 0 0 1 .07-.033.09.09 0 0 1 .068.033c.019.02.029.048.029.077 0 .029-.01.057-.029.077a.091.091 0 0 1-.069.032ZM72.242 3.123c.772 0 1.399-.699 1.399-1.561C73.64.699 73.014 0 72.242 0s-1.398.7-1.398 1.562c0 .862.626 1.561 1.398 1.561Zm.015 12.711c-.258 0-.51-.085-.723-.245a1.431 1.431 0 0 1-.479-.651 1.611 1.611 0 0 1-.074-.84c.05-.281.174-.54.356-.743.182-.203.414-.341.666-.397.252-.056.514-.028.751.082.238.11.441.296.584.535.143.239.22.52.22.807 0 .385-.138.754-.382 1.027a1.236 1.236 0 0 1-.92.425Zm-.001 12.711c-.17.02-.341 0-.504-.058a1.192 1.192 0 0 1-.44-.282 1.362 1.362 0 0 1-.297-.457 1.494 1.494 0 0 1 0-1.107c.07-.174.17-.33.298-.457.127-.128.277-.224.44-.282.162-.059.333-.079.503-.058.299.036.574.193.775.443.2.25.311.572.311.908 0 .335-.11.658-.311.907-.2.25-.477.407-.775.443Zm-.013 12.695c.618 0 1.119-.56 1.119-1.25 0-.689-.501-1.248-1.12-1.248-.617 0-1.118.559-1.118 1.249 0 .69.5 1.25 1.119 1.25Zm.013 12.712a.957.957 0 0 1-.58-.189 1.135 1.135 0 0 1-.388-.517 1.281 1.281 0 0 1-.062-.672c.04-.225.139-.432.284-.595.146-.163.331-.273.533-.317a.935.935 0 0 1 .601.07c.19.089.351.24.464.432.113.192.171.418.169.648a1.226 1.226 0 0 1-.303.801.984.984 0 0 1-.718.339Zm.001 12.71a.867.867 0 0 1-.525-.168 1.026 1.026 0 0 1-.35-.467 1.159 1.159 0 0 1-.06-.605 1.1 1.1 0 0 1 .253-.54.913.913 0 0 1 .48-.29.846.846 0 0 1 .543.056.973.973 0 0 1 .423.385c.103.172.159.375.159.583 0 .275-.097.539-.27.734a.892.892 0 0 1-.653.312Zm-.016 12.696c.464 0 .84-.42.84-.937 0-.517-.376-.937-.84-.937-.463 0-.839.42-.839.937 0 .518.376.937.84.937Zm.016 12.726a.698.698 0 0 1-.424-.134.825.825 0 0 1-.284-.375.935.935 0 0 1-.049-.489.88.88 0 0 1 .204-.435.737.737 0 0 1 .386-.236.682.682 0 0 1 .438.046.779.779 0 0 1 .341.31.915.915 0 0 1 .129.47.896.896 0 0 1-.217.59.72.72 0 0 1-.525.253Zm0 12.68a.61.61 0 0 1-.37-.117.717.717 0 0 1-.248-.329.812.812 0 0 1-.041-.427.767.767 0 0 1 .18-.38.643.643 0 0 1 .34-.201.596.596 0 0 1 .383.045c.12.058.223.154.294.277a.799.799 0 0 1-.087.917.626.626 0 0 1-.451.215Zm0 12.712a.517.517 0 0 1-.311-.106.612.612 0 0 1-.206-.28.693.693 0 0 1-.032-.361.655.655 0 0 1 .153-.32.544.544 0 0 1 .286-.17.501.501 0 0 1 .324.035c.102.047.19.127.25.23a.68.68 0 0 1-.069.789.532.532 0 0 1-.395.183Zm0 12.711a.433.433 0 0 1-.205-.011.456.456 0 0 1-.183-.106.53.53 0 0 1-.124-.182.587.587 0 0 1 0-.449.53.53 0 0 1 .124-.182.456.456 0 0 1 .183-.106.433.433 0 0 1 .205-.011.47.47 0 0 1 .282.182.567.567 0 0 1 .112.342c0 .125-.04.246-.112.341a.47.47 0 0 1-.282.182Zm0 12.696a.356.356 0 0 1-.312-.089.415.415 0 0 1-.102-.145.468.468 0 0 1 0-.36.428.428 0 0 1 .101-.146.367.367 0 0 1 .147-.083.342.342 0 0 1 .166-.005c.085.019.163.07.219.146a.45.45 0 0 1 .086.268c0 .098-.03.192-.086.268a.377.377 0 0 1-.22.146Zm-.014 12.695c.154 0 .28-.14.28-.313 0-.172-.126-.312-.28-.312-.155 0-.28.14-.28.312 0 .173.125.313.28.313Zm.013 12.711a.173.173 0 0 1-.129-.059.216.216 0 0 1-.053-.144.22.22 0 0 1 .053-.143.17.17 0 0 1 .129-.06.17.17 0 0 1 .129.06.214.214 0 0 1 .053.143c0 .054-.02.106-.053.144a.173.173 0 0 1-.129.059Zm.001 12.71a.095.095 0 0 1-.07-.032.116.116 0 0 1-.028-.077.112.112 0 0 1 .033-.067.09.09 0 0 1 .065-.026.08.08 0 0 1 .06.027.098.098 0 0 1 .024.066.117.117 0 0 1-.024.072.097.097 0 0 1-.06.037ZM82.367 3.123c.772 0 1.399-.699 1.399-1.561C83.766.699 83.139 0 82.367 0S80.97.7 80.97 1.562c0 .862.626 1.561 1.398 1.561Zm-.001 12.711a1.209 1.209 0 0 1-.719-.252 1.433 1.433 0 0 1-.473-.655 1.612 1.612 0 0 1-.068-.838 1.51 1.51 0 0 1 .359-.74c.182-.201.414-.338.666-.393.252-.054.513-.025.75.086.236.11.439.296.58.535a1.599 1.599 0 0 1 .118 1.364 1.47 1.47 0 0 1-.285.473 1.298 1.298 0 0 1-.426.314c-.16.072-.33.108-.502.106Zm.001 12.711c.672 0 1.217-.609 1.217-1.359s-.545-1.358-1.217-1.358-1.217.608-1.217 1.358c0 .75.545 1.359 1.217 1.359Zm.001 12.695c.618 0 1.119-.56 1.119-1.25 0-.689-.501-1.248-1.12-1.248-.617 0-1.118.559-1.118 1.249 0 .69.5 1.25 1.119 1.25Zm-.001 12.712a.96.96 0 0 1-.577-.196 1.138 1.138 0 0 1-.38-.521 1.281 1.281 0 0 1-.057-.67 1.2 1.2 0 0 1 .287-.591c.146-.161.332-.27.534-.313a.936.936 0 0 1 .599.072c.188.09.349.24.461.433.112.192.17.417.168.646 0 .15-.027.3-.08.44a1.154 1.154 0 0 1-.224.371 1.02 1.02 0 0 1-.336.247.928.928 0 0 1-.395.082Zm-.001 12.71a.869.869 0 0 1-.52-.176 1.03 1.03 0 0 1-.346-.47 1.16 1.16 0 0 1-.053-.604 1.09 1.09 0 0 1 .256-.536.912.912 0 0 1 .48-.286c.182-.04.37-.02.541.06a.96.96 0 0 1 .42.385c.104.172.159.374.159.581 0 .278-.1.544-.275.74a.89.89 0 0 1-.662.306Zm0 12.696c.464 0 .84-.42.84-.937 0-.517-.376-.937-.84-.937-.463 0-.839.42-.839.937 0 .518.376.937.84.937Zm.002 12.726a.7.7 0 0 1-.42-.142.83.83 0 0 1-.278-.378.935.935 0 0 1-.043-.487.878.878 0 0 1 .207-.432.735.735 0 0 1 .386-.23.683.683 0 0 1 .436.047.78.78 0 0 1 .34.31.916.916 0 0 1 .127.47c0 .223-.08.437-.222.596a.717.717 0 0 1-.533.246Zm-.001 12.68a.606.606 0 0 1-.367-.125.722.722 0 0 1-.241-.332.812.812 0 0 1-.035-.426.759.759 0 0 1 .183-.375.633.633 0 0 1 .34-.197.59.59 0 0 1 .381.048c.12.058.222.154.292.277a.799.799 0 0 1-.093.921.624.624 0 0 1-.46.209Zm0 12.712a.532.532 0 0 1-.395-.183.663.663 0 0 1-.164-.442c0-.166.058-.324.163-.442a.53.53 0 0 1 .396-.182.53.53 0 0 1 .395.182.665.665 0 0 1 .164.442.663.663 0 0 1-.163.442.532.532 0 0 1-.396.183Zm-.001 12.711a.444.444 0 0 1-.264-.09.52.52 0 0 1-.175-.238.589.589 0 0 1-.027-.307.552.552 0 0 1 .13-.272.46.46 0 0 1 .243-.145.428.428 0 0 1 .275.03c.087.04.161.108.213.196a.575.575 0 0 1-.059.67.45.45 0 0 1-.336.156Zm.001 12.695c.208 0 .377-.188.377-.421 0-.233-.169-.422-.377-.422-.209 0-.378.189-.378.422 0 .233.17.421.378.421Zm0 12.696c.154 0 .28-.14.28-.313 0-.172-.126-.312-.28-.312-.155 0-.28.14-.28.312 0 .173.125.313.28.313Zm0 12.711c.1 0 .182-.091.182-.203 0-.112-.081-.203-.182-.203-.1 0-.181.091-.181.203 0 .112.08.203.181.203Zm-.001 12.71a.097.097 0 0 1-.06-.037.118.118 0 0 1-.024-.072c0-.025.01-.049.025-.066a.078.078 0 0 1 .06-.027.09.09 0 0 1 .064.026.11.11 0 0 1 .033.067c0 .029-.01.056-.029.077a.095.095 0 0 1-.069.032ZM92.491 3.123c.772 0 1.399-.699 1.399-1.561C93.89.699 93.263 0 92.49 0s-1.398.7-1.398 1.562c0 .862.626 1.561 1.398 1.561Zm0 12.711c-.257 0-.509-.085-.723-.245a1.431 1.431 0 0 1-.479-.651 1.61 1.61 0 0 1-.074-.84c.05-.281.174-.54.356-.743.182-.203.414-.341.666-.397.253-.056.514-.028.752.082.237.11.44.296.583.535.143.239.22.52.22.807 0 .385-.138.754-.381 1.027a1.236 1.236 0 0 1-.92.425Zm.001 12.711c-.24 0-.476-.08-.676-.23a1.33 1.33 0 0 1-.448-.609 1.506 1.506 0 0 1-.07-.785c.048-.263.164-.505.334-.695.17-.19.387-.32.623-.372a1.1 1.1 0 0 1 .703.077c.222.103.412.277.546.5a1.482 1.482 0 0 1-.152 1.715 1.156 1.156 0 0 1-.86.399ZM92.49 41.24c.619 0 1.12-.56 1.12-1.25 0-.689-.501-1.248-1.12-1.248-.617 0-1.118.559-1.118 1.249 0 .69.5 1.25 1.119 1.25Zm.001 12.712a.957.957 0 0 1-.58-.189 1.136 1.136 0 0 1-.387-.517 1.281 1.281 0 0 1-.062-.672c.04-.225.138-.432.284-.595a.996.996 0 0 1 .533-.317.935.935 0 0 1 .6.07c.19.089.352.24.464.432.113.192.172.418.169.648 0 .302-.108.592-.3.806a.97.97 0 0 1-.72.334Zm-.001 12.71a.869.869 0 0 1-.52-.176 1.03 1.03 0 0 1-.345-.47 1.16 1.16 0 0 1-.053-.604 1.09 1.09 0 0 1 .256-.536.911.911 0 0 1 .48-.286c.182-.04.37-.02.541.06a.96.96 0 0 1 .42.385c.104.172.159.374.159.581 0 .278-.1.544-.275.74a.89.89 0 0 1-.662.306Zm.001 12.696c.464 0 .84-.42.84-.937 0-.517-.376-.937-.84-.937-.463 0-.839.42-.839.937 0 .518.376.937.84.937Zm.002 12.726a.7.7 0 0 1-.42-.142.83.83 0 0 1-.278-.378.936.936 0 0 1-.043-.487.877.877 0 0 1 .207-.432.735.735 0 0 1 .386-.23.682.682 0 0 1 .436.047.779.779 0 0 1 .34.31.915.915 0 0 1 .127.47c0 .223-.08.437-.222.596a.718.718 0 0 1-.533.246Zm-.002 12.68a.64.64 0 0 1-.401-.246.787.787 0 0 1-.16-.48c0-.176.056-.346.16-.48a.644.644 0 0 1 .401-.246.602.602 0 0 1 .525.171.731.731 0 0 1 .168.25.806.806 0 0 1 0 .611.741.741 0 0 1-.168.25.658.658 0 0 1-.245.149.589.589 0 0 1-.28.021Zm.001 12.712a.517.517 0 0 1-.31-.106.612.612 0 0 1-.207-.28.693.693 0 0 1-.032-.361.654.654 0 0 1 .154-.32.544.544 0 0 1 .286-.17.501.501 0 0 1 .323.035c.102.047.19.127.251.23a.68.68 0 0 1-.07.789.532.532 0 0 1-.395.183Zm0 12.71a.463.463 0 0 1-.283-.181.57.57 0 0 1-.111-.342.57.57 0 0 1 .111-.342.472.472 0 0 1 .283-.181c.11.022.21.086.282.181a.57.57 0 0 1 .112.342.57.57 0 0 1-.112.342.463.463 0 0 1-.282.181Zm0 12.696a.346.346 0 0 1-.21-.071.413.413 0 0 1-.139-.189.468.468 0 0 1-.022-.244.44.44 0 0 1 .104-.215c.053-.059.12-.1.193-.116a.342.342 0 0 1 .218.024.392.392 0 0 1 .17.155.46.46 0 0 1-.047.533.358.358 0 0 1-.267.123Zm0 12.696c.154 0 .28-.14.28-.313 0-.172-.126-.312-.28-.312-.155 0-.28.14-.28.312 0 .173.125.313.28.313Zm0 12.711a.17.17 0 0 1-.128-.06.214.214 0 0 1-.053-.143c0-.054.019-.106.053-.144a.174.174 0 0 1 .128-.06c.049 0 .095.022.129.06s.053.09.053.144a.214.214 0 0 1-.053.143.17.17 0 0 1-.129.06Zm0 12.711a.097.097 0 0 1-.038-.008.11.11 0 0 1-.06-.101c0-.029.01-.057.028-.077a.092.092 0 0 1 .07-.033c.025 0 .05.012.069.033.018.02.028.048.028.077 0 .029-.01.057-.028.077a.091.091 0 0 1-.07.032ZM102.615 3.123c.773 0 1.399-.699 1.399-1.561 0-.863-.626-1.562-1.399-1.562-.772 0-1.398.7-1.398 1.562 0 .862.626 1.561 1.398 1.561Zm.001 12.711c-.257 0-.509-.085-.723-.245a1.44 1.44 0 0 1-.479-.651 1.617 1.617 0 0 1-.074-.84c.051-.281.174-.54.356-.743.182-.203.414-.341.666-.397.252-.056.514-.028.752.082.237.11.44.296.583.535.143.239.219.52.219.807.002.191-.03.381-.095.558-.064.177-.16.338-.281.473a1.292 1.292 0 0 1-.424.315 1.173 1.173 0 0 1-.5.106Zm.001 12.711c-.241 0-.476-.08-.676-.23a1.33 1.33 0 0 1-.448-.609 1.507 1.507 0 0 1-.069-.785c.047-.263.163-.505.333-.695.17-.19.387-.32.623-.372a1.1 1.1 0 0 1 .703.077c.222.103.412.277.546.5a1.482 1.482 0 0 1-.152 1.715 1.154 1.154 0 0 1-.86.399Zm-.001 12.695c.618 0 1.119-.56 1.119-1.25 0-.689-.501-1.248-1.119-1.248s-1.119.559-1.119 1.249c0 .69.501 1.25 1.119 1.25Zm0 12.712a1.006 1.006 0 0 1-.653-.38 1.234 1.234 0 0 1-.262-.768c0-.283.093-.557.262-.768.169-.212.401-.347.653-.38.252.033.484.168.653.38.168.211.262.485.262.768 0 .283-.094.557-.262.768a1.006 1.006 0 0 1-.653.38Zm0 12.71a.868.868 0 0 1-.521-.176 1.03 1.03 0 0 1-.345-.47 1.16 1.16 0 0 1-.053-.604c.036-.203.125-.39.256-.536a.911.911 0 0 1 .48-.286c.182-.04.37-.02.541.06a.97.97 0 0 1 .421.385c.103.172.158.374.158.581 0 .278-.099.544-.275.74a.89.89 0 0 1-.662.306Zm0 12.696a.777.777 0 0 1-.466-.158.926.926 0 0 1-.309-.42 1.048 1.048 0 0 1-.048-.541.985.985 0 0 1 .23-.48.815.815 0 0 1 .43-.257.76.76 0 0 1 .485.054.867.867 0 0 1 .376.345 1.036 1.036 0 0 1 .078.879.964.964 0 0 1-.182.304.847.847 0 0 1-.272.203.765.765 0 0 1-.322.071Zm0 12.726a.697.697 0 0 1-.423-.134.832.832 0 0 1-.285-.375.932.932 0 0 1-.048-.489.875.875 0 0 1 .203-.435.735.735 0 0 1 .386-.236.685.685 0 0 1 .439.046.785.785 0 0 1 .341.31.92.92 0 0 1-.088 1.06.72.72 0 0 1-.525.253Zm0 12.68a.607.607 0 0 1-.367-.125.72.72 0 0 1-.241-.332.801.801 0 0 1 .148-.801.636.636 0 0 1 .341-.197.588.588 0 0 1 .38.048c.12.058.222.154.292.277a.792.792 0 0 1 .104.412.772.772 0 0 1-.197.509.625.625 0 0 1-.46.209Zm-.001 12.712a.517.517 0 0 1-.311-.106.616.616 0 0 1-.206-.28.703.703 0 0 1-.032-.361.652.652 0 0 1 .154-.32.54.54 0 0 1 .286-.17.5.5 0 0 1 .323.035c.102.047.19.127.251.23a.674.674 0 0 1 .094.347.667.667 0 0 1-.163.442.534.534 0 0 1-.396.183Zm.001 12.695c.255 0 .461-.231.461-.516 0-.284-.206-.515-.461-.515s-.462.231-.462.515c0 .285.207.516.462.516Zm0 12.711a.346.346 0 0 1-.21-.071.416.416 0 0 1-.139-.189.46.46 0 0 1 .082-.459c.053-.059.12-.1.193-.116a.342.342 0 0 1 .218.024.396.396 0 0 1 .17.155.465.465 0 0 1-.047.533.359.359 0 0 1-.267.123Zm.001 12.696c.154 0 .279-.14.279-.313 0-.172-.125-.312-.279-.312-.155 0-.28.14-.28.312 0 .173.125.313.28.313Zm-.002 12.711a.17.17 0 0 1-.101-.034.207.207 0 0 1-.067-.091.232.232 0 0 1-.01-.117.203.203 0 0 1 .05-.104.174.174 0 0 1 .093-.056.165.165 0 0 1 .105.011.197.197 0 0 1 .082.075c.02.034.03.073.03.113a.217.217 0 0 1-.053.144.172.172 0 0 1-.129.059Zm0 12.711a.093.093 0 0 1-.069-.032.116.116 0 0 1-.028-.077c0-.029.01-.057.028-.077a.094.094 0 0 1 .069-.033c.026 0 .051.012.07.033.018.02.028.048.028.077 0 .029-.01.057-.028.077a.094.094 0 0 1-.07.032ZM112.727 3.123c.772 0 1.398-.699 1.398-1.561 0-.863-.626-1.562-1.398-1.562-.773 0-1.399.7-1.399 1.562 0 .862.626 1.561 1.399 1.561Zm.014 12.711c-.257 0-.509-.085-.723-.245a1.44 1.44 0 0 1-.479-.651 1.617 1.617 0 0 1-.074-.84c.051-.281.174-.54.356-.743.182-.203.414-.341.666-.397.252-.056.514-.028.752.082.237.11.44.296.583.535.143.239.219.52.219.807 0 .385-.137.754-.38 1.027a1.237 1.237 0 0 1-.92.425Zm-.001 12.711a1.1 1.1 0 0 1-.504-.058 1.195 1.195 0 0 1-.439-.282 1.37 1.37 0 0 1-.298-.457 1.485 1.485 0 0 1-.105-.553c0-.191.035-.38.105-.554.07-.174.171-.33.298-.457a1.18 1.18 0 0 1 .439-.282c.163-.059.335-.079.504-.058.299.036.575.193.775.443.201.25.312.572.312.908 0 .335-.111.658-.312.907-.2.25-.476.407-.775.443Zm.001 12.695c-.297 0-.581-.132-.791-.366a1.326 1.326 0 0 1-.328-.883c0-.331.118-.65.328-.883a1.06 1.06 0 0 1 .791-.366c.296 0 .581.131.791.366.21.234.328.552.328.883 0 .331-.118.649-.328.883-.21.234-.495.366-.791.366Zm-.001 12.712a.956.956 0 0 1-.58-.189 1.137 1.137 0 0 1-.387-.517 1.276 1.276 0 0 1-.062-.672c.039-.225.138-.432.284-.595a1 1 0 0 1 .533-.317.936.936 0 0 1 .601.07c.189.089.351.24.463.432.113.192.172.418.169.648a1.226 1.226 0 0 1-.303.801.985.985 0 0 1-.718.339Zm.001 12.71a.866.866 0 0 1-.524-.168 1.027 1.027 0 0 1-.352-.467 1.166 1.166 0 0 1-.059-.605c.035-.204.123-.392.254-.54a.91.91 0 0 1 .479-.29.845.845 0 0 1 .543.056.97.97 0 0 1 .423.385c.104.172.159.375.159.583 0 .275-.097.539-.27.734a.89.89 0 0 1-.653.312Zm0 12.696a.777.777 0 0 1-.466-.158.926.926 0 0 1-.309-.42 1.048 1.048 0 0 1-.048-.541.985.985 0 0 1 .23-.48.815.815 0 0 1 .43-.257.756.756 0 0 1 .484.054.863.863 0 0 1 .377.345c.092.154.141.335.141.52a.996.996 0 0 1-.245.663.799.799 0 0 1-.594.274Zm0 12.726a.697.697 0 0 1-.423-.134.832.832 0 0 1-.285-.375.932.932 0 0 1-.048-.489.875.875 0 0 1 .203-.435.735.735 0 0 1 .386-.236.685.685 0 0 1 .439.046.785.785 0 0 1 .341.31.92.92 0 0 1-.088 1.06.72.72 0 0 1-.525.253Zm-.002 12.68a.61.61 0 0 1-.37-.117.722.722 0 0 1-.248-.329.815.815 0 0 1-.041-.427.766.766 0 0 1 .181-.38.643.643 0 0 1 .34-.201.597.597 0 0 1 .383.045c.12.058.223.154.294.277a.808.808 0 0 1 .105.414.78.78 0 0 1-.193.503.625.625 0 0 1-.451.215Zm.001 12.712a.517.517 0 0 1-.311-.106.616.616 0 0 1-.206-.28.703.703 0 0 1-.032-.361.652.652 0 0 1 .154-.32.54.54 0 0 1 .286-.17.5.5 0 0 1 .323.035c.102.047.19.127.251.23a.674.674 0 0 1 .094.347.667.667 0 0 1-.163.442.534.534 0 0 1-.396.183Zm0 12.711a.432.432 0 0 1-.205-.011.455.455 0 0 1-.182-.106.528.528 0 0 1-.125-.182.592.592 0 0 1 0-.449.528.528 0 0 1 .125-.182.455.455 0 0 1 .182-.106.432.432 0 0 1 .205-.011.468.468 0 0 1 .283.182.567.567 0 0 1 .112.342c0 .125-.04.246-.112.341a.468.468 0 0 1-.283.182Zm0 12.696a.355.355 0 0 1-.312-.089.418.418 0 0 1-.102-.145.463.463 0 0 1 .102-.506.366.366 0 0 1 .147-.083.341.341 0 0 1 .165-.005c.086.019.163.07.219.146.056.075.086.17.086.268s-.03.192-.086.268a.377.377 0 0 1-.219.146Zm.001 12.711a.262.262 0 0 1-.156-.053.304.304 0 0 1-.103-.14.358.358 0 0 1-.016-.181.333.333 0 0 1 .077-.16.275.275 0 0 1 .143-.085.252.252 0 0 1 .162.018.282.282 0 0 1 .125.115.348.348 0 0 1 .026.293.314.314 0 0 1-.151.169.253.253 0 0 1-.107.024Zm-.001 12.695a.172.172 0 0 1-.128-.059.217.217 0 0 1-.053-.144c0-.054.019-.105.053-.143a.17.17 0 0 1 .128-.06.17.17 0 0 1 .129.06.214.214 0 0 1 .053.143.217.217 0 0 1-.053.144.172.172 0 0 1-.129.059Zm0 12.71a.099.099 0 0 1-.037-.008.108.108 0 0 1-.06-.101.11.11 0 0 1 .033-.067.09.09 0 0 1 .064-.026c.023 0 .044.009.06.027a.096.096 0 0 1 .024.066.115.115 0 0 1-.023.072.098.098 0 0 1-.061.037ZM122.852 3.123c.772 0 1.398-.699 1.398-1.561 0-.863-.626-1.562-1.398-1.562-.773 0-1.399.7-1.399 1.562 0 .862.626 1.561 1.399 1.561Zm0 12.711a1.209 1.209 0 0 1-.719-.252 1.439 1.439 0 0 1-.473-.655 1.612 1.612 0 0 1-.068-.838c.052-.28.177-.538.359-.74a1.27 1.27 0 0 1 .666-.393c.252-.054.513-.025.75.086.237.11.439.296.581.535a1.605 1.605 0 0 1 .118 1.364 1.47 1.47 0 0 1-.285.473 1.312 1.312 0 0 1-.427.314c-.159.072-.33.108-.502.106Zm-.002 12.711c.672 0 1.217-.609 1.217-1.359s-.545-1.358-1.217-1.358-1.216.608-1.216 1.358c0 .75.544 1.359 1.216 1.359Zm0 12.695c-.221 0-.437-.073-.621-.21a1.225 1.225 0 0 1-.412-.56 1.384 1.384 0 0 1-.064-.723c.043-.242.15-.465.306-.64a1.09 1.09 0 0 1 .573-.341c.217-.048.442-.024.646.07.205.095.379.256.502.461.123.205.189.447.189.694 0 .331-.118.65-.328.883a1.06 1.06 0 0 1-.791.366Zm.001 12.712a.958.958 0 0 1-.576-.196 1.135 1.135 0 0 1-.381-.521 1.281 1.281 0 0 1-.057-.67c.041-.225.141-.43.287-.591a1.01 1.01 0 0 1 .534-.313.936.936 0 0 1 .599.072c.189.09.349.24.461.433.112.192.171.417.168.646 0 .15-.027.3-.079.44a1.157 1.157 0 0 1-.225.371 1.01 1.01 0 0 1-.336.247.927.927 0 0 1-.395.082Zm.001 12.71a.873.873 0 0 1-.521-.176 1.03 1.03 0 0 1-.345-.47 1.16 1.16 0 0 1-.053-.604c.036-.203.125-.39.256-.536a.911.911 0 0 1 .48-.286.85.85 0 0 1 .542.06.966.966 0 0 1 .42.385c.103.172.158.374.158.581 0 .278-.099.544-.274.74a.892.892 0 0 1-.663.306Zm-.001 12.696c.463 0 .839-.42.839-.937 0-.517-.376-.937-.839-.937-.464 0-.839.42-.839.937 0 .518.375.937.839.937Zm-.001 12.726a.702.702 0 0 1-.42-.142.83.83 0 0 1-.278-.378.938.938 0 0 1-.043-.487.874.874 0 0 1 .207-.432.732.732 0 0 1 .387-.23.682.682 0 0 1 .436.047.78.78 0 0 1 .339.31.915.915 0 0 1 .127.47.9.9 0 0 1-.221.596.719.719 0 0 1-.534.246Zm0 12.68a.604.604 0 0 1-.366-.125.723.723 0 0 1-.242-.332.822.822 0 0 1-.035-.426.767.767 0 0 1 .184-.375.633.633 0 0 1 .34-.197.592.592 0 0 1 .381.048c.12.058.221.154.292.277a.802.802 0 0 1-.094.921.625.625 0 0 1-.46.209Zm.001 12.712a.516.516 0 0 1-.31-.106.609.609 0 0 1-.206-.28.682.682 0 0 1 .121-.681.544.544 0 0 1 .286-.17.5.5 0 0 1 .323.035c.103.047.19.127.251.23a.675.675 0 0 1-.069.789.532.532 0 0 1-.396.183Zm.001 12.711a.443.443 0 0 1-.264-.09.521.521 0 0 1-.175-.238.593.593 0 0 1-.027-.307.553.553 0 0 1 .13-.272.46.46 0 0 1 .244-.145.425.425 0 0 1 .274.03c.087.04.161.108.214.196a.578.578 0 0 1-.059.67.454.454 0 0 1-.337.156Zm-.001 12.695a.348.348 0 0 1-.21-.071.416.416 0 0 1-.139-.189.47.47 0 0 1-.021-.244.432.432 0 0 1 .103-.215c.053-.059.12-.1.194-.116a.342.342 0 0 1 .218.024.388.388 0 0 1 .169.155.456.456 0 0 1-.047.533.359.359 0 0 1-.267.123Zm.001 12.712a.262.262 0 0 1-.155-.053.304.304 0 0 1-.103-.14.337.337 0 0 1 .06-.341.275.275 0 0 1 .143-.085.251.251 0 0 1 .162.018.277.277 0 0 1 .125.115.333.333 0 0 1-.034.394.266.266 0 0 1-.198.092Zm-.001 12.695c.1 0 .182-.091.182-.203 0-.112-.082-.203-.182-.203-.101 0-.182.091-.182.203 0 .112.081.203.182.203Zm0 12.71a.098.098 0 0 1-.061-.037.115.115 0 0 1-.023-.072c0-.025.008-.049.024-.066a.078.078 0 0 1 .06-.027.09.09 0 0 1 .064.026.11.11 0 0 1 .033.067.113.113 0 0 1-.028.077.108.108 0 0 1-.032.024.099.099 0 0 1-.037.008ZM132.976 3.123c.772 0 1.398-.699 1.398-1.561 0-.863-.626-1.562-1.398-1.562-.773 0-1.399.7-1.399 1.562 0 .862.626 1.561 1.399 1.561Zm-.001 12.711c-.257 0-.508-.085-.722-.245a1.426 1.426 0 0 1-.479-.651 1.606 1.606 0 0 1-.074-.84c.05-.281.174-.54.356-.743.182-.203.413-.341.666-.397.252-.056.513-.028.751.082s.441.296.584.535c.143.239.219.52.219.807 0 .385-.137.754-.381 1.027a1.237 1.237 0 0 1-.92.425Zm0 12.711c.672 0 1.217-.609 1.217-1.359s-.545-1.358-1.217-1.358-1.216.608-1.216 1.358c0 .75.544 1.359 1.216 1.359Zm0 12.695c.618 0 1.119-.56 1.119-1.25 0-.689-.501-1.248-1.119-1.248s-1.119.559-1.119 1.249c0 .69.501 1.25 1.119 1.25Zm.001 12.712a.96.96 0 0 1-.58-.189 1.137 1.137 0 0 1-.387-.517 1.276 1.276 0 0 1-.062-.672c.039-.225.138-.432.284-.595a1 1 0 0 1 .533-.317.936.936 0 0 1 .601.07c.19.089.351.24.464.432.112.192.171.418.168.648 0 .302-.107.592-.299.806a.97.97 0 0 1-.722.334Zm-.001 12.71a.868.868 0 0 1-.52-.176 1.025 1.025 0 0 1-.346-.47 1.17 1.17 0 0 1-.053-.604c.036-.203.125-.39.256-.536a.915.915 0 0 1 .48-.286.85.85 0 0 1 .542.06.966.966 0 0 1 .42.385c.103.172.158.374.158.581 0 .278-.099.544-.274.74a.89.89 0 0 1-.663.306Zm.001 12.696c.463 0 .839-.42.839-.937 0-.517-.376-.937-.839-.937-.464 0-.839.42-.839.937 0 .518.375.937.839.937Zm.001 12.727a.736.736 0 0 1-.467-.281.902.902 0 0 1-.186-.555c0-.203.066-.4.186-.554a.736.736 0 0 1 .467-.28.734.734 0 0 1 .466.28c.12.154.187.35.187.555 0 .203-.067.4-.187.554a.734.734 0 0 1-.466.28Zm-.001 12.68a.605.605 0 0 1-.367-.125.723.723 0 0 1-.242-.332.822.822 0 0 1-.035-.426.767.767 0 0 1 .184-.375.633.633 0 0 1 .34-.197.592.592 0 0 1 .381.048c.12.058.221.154.292.277a.802.802 0 0 1-.094.921.623.623 0 0 1-.459.209Zm0 12.711a.516.516 0 0 1-.31-.106.609.609 0 0 1-.206-.28.682.682 0 0 1 .121-.681.544.544 0 0 1 .286-.17.5.5 0 0 1 .323.035c.103.047.19.127.251.23a.675.675 0 0 1-.069.789.532.532 0 0 1-.396.183Zm-.001 12.695c.255 0 .462-.231.462-.516 0-.284-.207-.515-.462-.515s-.461.231-.461.515c0 .285.206.516.461.516Zm.001 12.711a.35.35 0 0 1-.21-.071.416.416 0 0 1-.139-.189.47.47 0 0 1-.021-.244.432.432 0 0 1 .103-.215c.053-.059.12-.1.194-.116a.342.342 0 0 1 .218.024.388.388 0 0 1 .169.155.456.456 0 0 1-.047.533.359.359 0 0 1-.267.123Zm-.001 12.696c.154 0 .28-.14.28-.313 0-.172-.126-.312-.28-.312-.154 0-.28.14-.28.312 0 .173.126.313.28.313Zm.001 12.711c.1 0 .182-.091.182-.203 0-.112-.082-.203-.182-.203-.101 0-.182.091-.182.203 0 .112.081.203.182.203Zm0 12.711a.09.09 0 0 1-.069-.032.112.112 0 0 1-.029-.077c0-.029.01-.057.029-.077a.091.091 0 0 1 .069-.033c.026 0 .051.012.069.033a.116.116 0 0 1 0 .154.09.09 0 0 1-.069.032ZM143.101 3.123c.772 0 1.398-.699 1.398-1.561 0-.863-.626-1.562-1.398-1.562-.773 0-1.399.7-1.399 1.562 0 .862.626 1.561 1.399 1.561Zm-.001 12.711c-.257 0-.508-.085-.722-.245a1.426 1.426 0 0 1-.479-.651 1.606 1.606 0 0 1-.074-.84c.05-.281.174-.54.356-.743.182-.203.413-.341.666-.397.252-.056.513-.028.751.082s.441.296.584.535c.143.239.219.52.219.807.002.191-.031.381-.095.558a1.467 1.467 0 0 1-.282.473 1.282 1.282 0 0 1-.424.315 1.166 1.166 0 0 1-.5.106Zm0 12.711c.672 0 1.217-.609 1.217-1.359s-.545-1.358-1.217-1.358-1.216.608-1.216 1.358c0 .75.544 1.359 1.216 1.359Zm0 12.695c.618 0 1.119-.56 1.119-1.25 0-.689-.501-1.248-1.119-1.248s-1.119.559-1.119 1.249c0 .69.501 1.25 1.119 1.25Zm0 12.712a1.006 1.006 0 0 1-.653-.38 1.24 1.24 0 0 1-.261-.768c0-.283.093-.557.261-.768.169-.212.401-.347.653-.38.252.033.485.168.653.38.169.211.262.485.262.768 0 .283-.093.557-.262.768a1.003 1.003 0 0 1-.653.38Zm0 12.71a.868.868 0 0 1-.52-.176 1.025 1.025 0 0 1-.346-.47 1.17 1.17 0 0 1-.053-.604 1.09 1.09 0 0 1 .257-.536.908.908 0 0 1 .479-.286.85.85 0 0 1 .542.06.966.966 0 0 1 .42.385c.103.172.158.374.158.581 0 .278-.099.544-.274.74a.89.89 0 0 1-.663.306Zm-.001 12.696c.463 0 .839-.42.839-.937 0-.517-.376-.937-.839-.937-.464 0-.839.42-.839.937 0 .518.375.937.839.937Zm.001 12.726a.697.697 0 0 1-.423-.134.823.823 0 0 1-.284-.375.923.923 0 0 1 .154-.924.738.738 0 0 1 .387-.236.682.682 0 0 1 .438.046.78.78 0 0 1 .341.31.91.91 0 0 1 .128.47.894.894 0 0 1-.216.59.719.719 0 0 1-.525.253Zm.001 12.68a.605.605 0 0 1-.367-.125.723.723 0 0 1-.242-.332.822.822 0 0 1-.035-.426.767.767 0 0 1 .184-.375.633.633 0 0 1 .34-.197.592.592 0 0 1 .381.048c.12.058.221.154.292.277a.802.802 0 0 1-.094.921.623.623 0 0 1-.459.209Zm0 12.712a.516.516 0 0 1-.31-.106.609.609 0 0 1-.206-.28.682.682 0 0 1 .121-.681.544.544 0 0 1 .286-.17.5.5 0 0 1 .323.035c.103.047.19.127.251.23a.675.675 0 0 1-.069.789.532.532 0 0 1-.396.183Zm-.002 12.71a.463.463 0 0 1-.282-.181.572.572 0 0 1 0-.684.472.472 0 0 1 .282-.181.471.471 0 0 1 .283.181.571.571 0 0 1 .111.342.571.571 0 0 1-.111.342.462.462 0 0 1-.283.181Zm0 12.696c.209 0 .378-.188.378-.421 0-.233-.169-.422-.378-.422-.208 0-.377.189-.377.422 0 .233.169.421.377.421Zm.001 12.696c.154 0 .28-.14.28-.313 0-.172-.126-.312-.28-.312-.155 0-.28.14-.28.312 0 .173.125.313.28.313Zm.001 12.711c.1 0 .182-.091.182-.203 0-.112-.082-.203-.182-.203-.101 0-.182.091-.182.203 0 .112.081.203.182.203Zm0 12.711a.09.09 0 0 1-.069-.032.112.112 0 0 1-.029-.077c0-.029.01-.057.029-.077a.091.091 0 0 1 .069-.033c.026 0 .051.012.069.033a.116.116 0 0 1 0 .154.09.09 0 0 1-.069.032ZM153.21 3.123c.772 0 1.398-.699 1.398-1.561 0-.863-.626-1.562-1.398-1.562-.772 0-1.398.7-1.398 1.562 0 .862.626 1.561 1.398 1.561Zm.014 12.711c-.257 0-.508-.085-.722-.245a1.426 1.426 0 0 1-.479-.651 1.606 1.606 0 0 1-.074-.84c.05-.281.174-.54.356-.743.182-.203.413-.341.666-.397.252-.056.513-.028.751.082s.441.296.584.535c.143.239.219.52.219.807 0 .385-.137.754-.381 1.027a1.237 1.237 0 0 1-.92.425Zm0 12.711c-.17.02-.342 0-.504-.058a1.187 1.187 0 0 1-.439-.282 1.372 1.372 0 0 1-.299-.457 1.506 1.506 0 0 1 0-1.107c.07-.174.172-.33.299-.457.127-.128.276-.224.439-.282.162-.059.334-.079.504-.058.298.036.574.193.775.443.2.25.311.572.311.908 0 .335-.111.658-.311.907-.201.25-.477.407-.775.443Zm.001 12.695c-.297 0-.581-.132-.791-.366a1.326 1.326 0 0 1-.328-.883c0-.331.118-.65.328-.883a1.06 1.06 0 0 1 .791-.366c.297 0 .581.131.791.366.21.234.328.552.328.883 0 .331-.118.649-.328.883-.21.234-.494.366-.791.366Zm0 12.712a.961.961 0 0 1-.581-.189 1.137 1.137 0 0 1-.387-.517 1.286 1.286 0 0 1-.062-.672c.039-.225.138-.432.284-.595a1 1 0 0 1 .533-.317.936.936 0 0 1 .601.07c.19.089.351.24.464.432.112.192.171.418.168.648a1.221 1.221 0 0 1-.303.801.983.983 0 0 1-.717.339Zm-.001 12.71a.868.868 0 0 1-.524-.168 1.025 1.025 0 0 1-.351-.467 1.155 1.155 0 0 1-.059-.605c.034-.204.122-.392.253-.54a.91.91 0 0 1 .479-.29.848.848 0 0 1 .544.056.962.962 0 0 1 .422.385c.104.172.159.375.159.583 0 .275-.096.539-.269.734a.894.894 0 0 1-.654.312Zm0 12.696a.777.777 0 0 1-.466-.158.918.918 0 0 1-.309-.42 1.038 1.038 0 0 1-.048-.541.967.967 0 0 1 .23-.48.812.812 0 0 1 .429-.257.758.758 0 0 1 .485.054.874.874 0 0 1 .377.345c.092.154.141.335.141.52a.997.997 0 0 1-.246.663.797.797 0 0 1-.593.274Zm.001 12.726a.697.697 0 0 1-.423-.134.823.823 0 0 1-.284-.375.923.923 0 0 1 .154-.924.738.738 0 0 1 .387-.236.682.682 0 0 1 .438.046.78.78 0 0 1 .341.31.91.91 0 0 1 .128.47.894.894 0 0 1-.216.59.719.719 0 0 1-.525.253Zm.001 12.68a.615.615 0 0 1-.371-.117.722.722 0 0 1-.248-.329.815.815 0 0 1-.04-.427.765.765 0 0 1 .18-.38.643.643 0 0 1 .34-.201.597.597 0 0 1 .383.045c.12.058.223.154.294.277a.798.798 0 0 1-.087.917.627.627 0 0 1-.451.215Zm-.002 12.712a.516.516 0 0 1-.31-.106.609.609 0 0 1-.206-.28.682.682 0 0 1 .121-.681.544.544 0 0 1 .286-.17.5.5 0 0 1 .323.035c.103.047.19.127.252.23a.684.684 0 0 1-.07.789.532.532 0 0 1-.396.183Zm.001 12.711a.435.435 0 0 1-.388-.117.542.542 0 0 1-.169-.406.542.542 0 0 1 .169-.407.435.435 0 0 1 .388-.117c.11.022.21.086.282.182a.567.567 0 0 1 .112.342c0 .125-.04.246-.112.341a.469.469 0 0 1-.282.182Zm0 12.696a.355.355 0 0 1-.312-.089.418.418 0 0 1-.102-.145.482.482 0 0 1 0-.36.432.432 0 0 1 .102-.146.342.342 0 0 1 .312-.088.37.37 0 0 1 .219.146.452.452 0 0 1 0 .536.374.374 0 0 1-.219.146Zm0 12.711a.262.262 0 0 1-.155-.053.304.304 0 0 1-.103-.14.337.337 0 0 1 .06-.341.275.275 0 0 1 .143-.085.251.251 0 0 1 .162.018.277.277 0 0 1 .125.115.333.333 0 0 1-.034.394.266.266 0 0 1-.198.092Zm0 12.695a.174.174 0 0 1-.129-.059.217.217 0 0 1-.053-.144c0-.054.019-.105.053-.143a.171.171 0 0 1 .129-.06.17.17 0 0 1 .128.06.217.217 0 0 1 0 .287.172.172 0 0 1-.128.059Zm0 12.71a.094.094 0 0 1-.069-.032.113.113 0 0 1-.029-.077.11.11 0 0 1 .033-.067.09.09 0 0 1 .065-.026c.022 0 .043.009.059.027a.097.097 0 0 1 .025.066.116.116 0 0 1-.024.072.096.096 0 0 1-.06.037Zm10.11-177.876c.772 0 1.398-.699 1.398-1.561 0-.863-.626-1.562-1.398-1.562-.772 0-1.398.7-1.398 1.562 0 .862.626 1.561 1.398 1.561Zm0 12.711a1.208 1.208 0 0 1-.718-.252 1.432 1.432 0 0 1-.473-.655 1.612 1.612 0 0 1-.068-.838c.051-.28.176-.538.359-.74.182-.201.414-.338.666-.393.252-.054.512-.025.749.086.237.11.439.296.582.535a1.605 1.605 0 0 1 .118 1.364 1.491 1.491 0 0 1-.286.473 1.291 1.291 0 0 1-.427.314c-.159.072-.33.108-.502.106Zm.001 12.711c-.241 0-.476-.08-.676-.23a1.33 1.33 0 0 1-.448-.609 1.507 1.507 0 0 1-.069-.785c.046-.263.162-.505.332-.695.171-.19.387-.32.623-.372a1.1 1.1 0 0 1 .703.077c.223.103.413.277.546.5.134.224.205.486.205.755 0 .36-.128.706-.356.96a1.156 1.156 0 0 1-.86.399Zm-.001 12.695c-.221 0-.437-.073-.621-.21a1.232 1.232 0 0 1-.412-.56 1.384 1.384 0 0 1-.064-.723c.043-.242.15-.465.306-.64a1.09 1.09 0 0 1 .573-.341c.217-.048.442-.024.647.07.204.095.379.256.502.461.123.205.188.447.188.694 0 .331-.118.65-.327.883-.21.235-.495.366-.792.366Zm0 12.712a.961.961 0 0 1-.577-.196 1.142 1.142 0 0 1-.381-.521 1.281 1.281 0 0 1-.056-.67c.041-.225.141-.43.287-.591.146-.161.332-.27.533-.313a.935.935 0 0 1 .599.072c.189.09.35.24.462.433.112.192.17.417.167.646 0 .15-.026.3-.079.44a1.154 1.154 0 0 1-.224.371 1.03 1.03 0 0 1-.336.247.93.93 0 0 1-.395.082Zm0 12.71a.868.868 0 0 1-.52-.176 1.03 1.03 0 0 1-.345-.47 1.16 1.16 0 0 1-.054-.604c.037-.203.126-.39.257-.536a.911.911 0 0 1 .48-.286c.181-.04.37-.02.541.06a.966.966 0 0 1 .42.385c.103.172.158.374.158.581 0 .278-.098.544-.274.74a.89.89 0 0 1-.663.306Zm0 12.696a.797.797 0 0 1-.593-.274.992.992 0 0 1-.246-.663.99.99 0 0 1 .246-.662.797.797 0 0 1 .593-.275c.223 0 .436.1.593.275a.992.992 0 0 1 .246.662.992.992 0 0 1-.246.663.795.795 0 0 1-.593.274Zm.001 12.726a.699.699 0 0 1-.419-.142.823.823 0 0 1-.278-.378.918.918 0 0 1 .163-.919.736.736 0 0 1 .387-.23.682.682 0 0 1 .436.047.78.78 0 0 1 .339.31.915.915 0 0 1 .127.47.894.894 0 0 1-.221.596.717.717 0 0 1-.534.246Zm-.001 12.68a.607.607 0 0 1-.367-.125.73.73 0 0 1-.242-.332.822.822 0 0 1-.035-.426.767.767 0 0 1 .184-.375.637.637 0 0 1 .34-.197.591.591 0 0 1 .381.048c.12.058.222.154.292.277a.792.792 0 0 1 .104.412.777.777 0 0 1-.197.509.625.625 0 0 1-.46.209Zm.001 12.712a.517.517 0 0 1-.311-.106.609.609 0 0 1-.206-.28.703.703 0 0 1-.032-.361.66.66 0 0 1 .153-.32.543.543 0 0 1 .287-.17.5.5 0 0 1 .323.035.578.578 0 0 1 .251.23.684.684 0 0 1-.07.789.532.532 0 0 1-.395.183Zm-.001 12.711a.443.443 0 0 1-.264-.09.514.514 0 0 1-.175-.238.583.583 0 0 1 .103-.579.458.458 0 0 1 .243-.145.428.428 0 0 1 .275.03c.087.04.161.108.213.196a.578.578 0 0 1-.059.67.45.45 0 0 1-.336.156Zm.001 12.695a.346.346 0 0 1-.21-.071.41.41 0 0 1-.139-.189.47.47 0 0 1-.022-.244.442.442 0 0 1 .104-.215c.052-.059.12-.1.193-.116a.342.342 0 0 1 .218.024.388.388 0 0 1 .169.155.456.456 0 0 1-.046.533.359.359 0 0 1-.267.123Zm0 12.712a.262.262 0 0 1-.155-.053.304.304 0 0 1-.103-.14.348.348 0 0 1-.016-.181.324.324 0 0 1 .077-.16.275.275 0 0 1 .143-.085.249.249 0 0 1 .161.018.284.284 0 0 1 .126.115.333.333 0 0 1 .047.173.328.328 0 0 1-.082.221.263.263 0 0 1-.198.092Zm-.001 12.695a.172.172 0 0 1-.128-.059.213.213 0 0 1-.054-.144.21.21 0 0 1 .054-.143.17.17 0 0 1 .128-.06c.048 0 .095.021.129.06a.214.214 0 0 1 .053.143.217.217 0 0 1-.053.144.174.174 0 0 1-.129.059Z"/>
</svg>
